<svg width="110" height="100" viewBox="0 0 110 100" fill="none" xmlns="http://www.w3.org/2000/svg">
<path id="Vector" d="M25.3863 70.1688C22.1382 70.1688 18.922 69.529 15.9212 68.2861C12.9204 67.0431 10.1938 65.2213 7.89711 62.9245C3.25869 58.2861 0.652863 51.9951 0.652863 45.4354C0.652863 38.8757 3.25869 32.5847 7.89711 27.9462C12.5355 23.3078 18.8266 20.702 25.3863 20.702C30.3329 9.0773 41.7103 0.915283 55.0663 0.915283C72.0334 0.915283 85.9336 14.0734 87.2197 30.7438L89.6931 30.5954C94.9408 30.5954 99.9737 32.68 103.684 36.3907C107.395 40.1015 109.48 45.1343 109.48 50.3821C109.48 55.6298 107.395 60.6627 103.684 64.3734C99.9737 68.0841 94.9408 70.1688 89.6931 70.1688H84.7464C83.4345 70.1688 82.1762 69.6476 81.2486 68.7199C80.3209 67.7923 79.7997 66.534 79.7997 65.2221C79.7997 63.9102 80.3209 62.652 81.2486 61.7243C82.1762 60.7966 83.4345 60.2754 84.7464 60.2754H89.6931C92.317 60.2754 94.8334 59.2331 96.6887 57.3777C98.5441 55.5224 99.5864 53.006 99.5864 50.3821C99.5864 47.7582 98.5441 45.2418 96.6887 43.3864C94.8334 41.531 92.317 40.4887 89.6931 40.4887H79.7997V35.542C79.7997 28.9823 77.1939 22.6913 72.5555 18.0529C67.9171 13.4145 61.626 10.8086 55.0663 10.8086C42.6996 10.8086 32.5589 19.8116 30.6297 31.5352C28.9973 30.9416 27.2165 30.5954 25.3863 30.5954C21.4504 30.5954 17.6758 32.1589 14.8928 34.9419C12.1097 37.7249 10.5462 41.4996 10.5462 45.4354C10.5462 49.3712 12.1097 53.1458 14.8928 55.9289C17.6758 58.7119 21.4504 60.2754 25.3863 60.2754H30.3329C31.6449 60.2754 32.9031 60.7966 33.8308 61.7243C34.7584 62.652 35.2796 63.9102 35.2796 65.2221C35.2796 66.534 34.7584 67.7923 33.8308 68.7199C32.9031 69.6476 31.6449 70.1688 30.3329 70.1688H25.3863ZM55.0663 45.4354H69.9064L60.013 65.2221H69.9064L51.3563 99.8489L55.0663 75.1155H42.6996L55.0663 45.4354Z" fill="white"/>
</svg>
